<?xml version="1.0" encoding="utf-8"?><!-- Uploaded to: SVG Repo, www.svgrepo.com, Generator: SVG Repo Mixer Tools -->
<svg width="800px" height="800px" viewBox="0 0 24 24" xmlns="http://www.w3.org/2000/svg" id="upper-sign" class="icon glyph"><path d="M21.49,9.13l-9-5-.11,0L12.19,4,12,4l-.19,0-.19.06-.11,0-9,5A1,1,0,0,0,2,10v9a1,1,0,0,0,.49.86A1,1,0,0,0,3,20a1,1,0,0,0,.49-.13L12,15.14l8.51,4.73A1,1,0,0,0,21,20a1,1,0,0,0,.51-.14A1,1,0,0,0,22,19V10A1,1,0,0,0,21.49,9.13Z" style="fill:#231f20"></path></svg>